<svg xmlns="http://www.w3.org/2000/svg" xmlns:xlink="http://www.w3.org/1999/xlink" width="500" zoomAndPan="magnify" viewBox="0 0 375 374.999991" height="500" preserveAspectRatio="xMidYMid meet" version="1.0"><defs><g/></defs><g fill="#ffffff" fill-opacity="1"><g transform="translate(33.143931, 265.874983)"><g><path d="M 51.09375 35.34375 C 46.195312 35.34375 42.113281 33.476562 38.84375 29.75 C 35.582031 26.019531 34.535156 21.585938 35.703125 16.453125 C 36.398438 11.546875 38.960938 6.0625 43.390625 0 C 47.828125 -6.0625 53.253906 -12.414062 59.671875 -19.0625 C 66.085938 -25.71875 72.796875 -32.132812 79.796875 -38.3125 C 86.796875 -44.5 93.445312 -50.101562 99.75 -55.125 C 106.050781 -60.144531 111.1875 -64.171875 115.15625 -67.203125 C 115.851562 -67.429688 116.898438 -68.015625 118.296875 -68.953125 C 119.234375 -69.878906 120.050781 -70.578125 120.75 -71.046875 C 124.019531 -73.617188 125.882812 -75.953125 126.34375 -78.046875 C 126.8125 -80.148438 126 -82.953125 123.90625 -86.453125 C 120.40625 -91.347656 115.617188 -94.144531 109.546875 -94.84375 C 103.953125 -94.84375 98.878906 -94.4375 94.328125 -93.625 C 89.773438 -92.8125 84.929688 -91.238281 79.796875 -88.90625 C 79.097656 -88.664062 78.398438 -88.367188 77.703125 -88.015625 C 77.003906 -87.671875 76.421875 -87.265625 75.953125 -86.796875 C 75.253906 -86.328125 74.550781 -85.914062 73.84375 -85.5625 C 73.144531 -85.21875 72.445312 -84.8125 71.75 -84.34375 C 71.28125 -84.113281 70.8125 -83.878906 70.34375 -83.640625 C 69.882812 -83.410156 69.421875 -83.179688 68.953125 -82.953125 C 68.015625 -82.253906 66.960938 -81.90625 65.796875 -81.90625 C 64.398438 -81.90625 63.234375 -82.367188 62.296875 -83.296875 C 60.429688 -85.398438 61.71875 -88.664062 66.15625 -93.09375 C 66.613281 -93.5625 67.191406 -94.144531 67.890625 -94.84375 C 68.597656 -95.550781 69.300781 -96.132812 70 -96.59375 C 70.695312 -97.0625 71.394531 -97.585938 72.09375 -98.171875 C 72.800781 -98.753906 73.382812 -99.28125 73.84375 -99.75 C 83.882812 -108.382812 93.394531 -117.078125 102.375 -125.828125 C 111.351562 -134.578125 119.285156 -144.140625 126.171875 -154.515625 C 133.054688 -164.898438 138.132812 -176.628906 141.40625 -189.703125 C 141.863281 -191.796875 142.148438 -193.894531 142.265625 -196 C 142.390625 -198.101562 141.398438 -199.851562 139.296875 -201.25 C 138.367188 -201.945312 137.203125 -202.296875 135.796875 -202.296875 C 134.628906 -202.296875 133.460938 -201.945312 132.296875 -201.25 C 130.429688 -200.3125 129.148438 -199.726562 128.453125 -199.5 C 121.453125 -196.226562 114.21875 -190.628906 106.75 -182.703125 C 99.519531 -175.003906 92.34375 -166.132812 85.21875 -156.09375 C 78.101562 -146.0625 71.164062 -135.210938 64.40625 -123.546875 C 61.132812 -117.710938 57.921875 -111.9375 54.765625 -106.21875 C 51.617188 -100.507812 48.53125 -94.851562 45.5 -89.25 C 39.664062 -77.8125 34.414062 -67.019531 29.75 -56.875 C 25.082031 -46.726562 21.234375 -38.15625 18.203125 -31.15625 C 17.734375 -29.988281 17.207031 -28.757812 16.625 -27.46875 C 16.039062 -26.1875 15.515625 -24.960938 15.046875 -23.796875 C 13.878906 -20.992188 12.476562 -18.78125 10.84375 -17.15625 C 9.675781 -15.28125 8.160156 -14.34375 6.296875 -14.34375 C 6.066406 -14.34375 5.832031 -14.460938 5.59375 -14.703125 C 5.363281 -14.703125 5.25 -14.703125 5.25 -14.703125 C 5.25 -14.703125 5.132812 -14.703125 4.90625 -14.703125 C 2.570312 -15.398438 1.171875 -17.148438 0.703125 -19.953125 C 0.234375 -24.148438 0.0546875 -28.347656 0.171875 -32.546875 C 0.285156 -36.742188 0.578125 -40.828125 1.046875 -44.796875 C 3.148438 -63.460938 6.242188 -81.71875 10.328125 -99.5625 C 14.410156 -117.414062 19.484375 -134.863281 25.546875 -151.90625 C 27.648438 -157.96875 29.632812 -163.972656 31.5 -169.921875 C 33.363281 -175.867188 35.226562 -181.878906 37.09375 -187.953125 C 37.332031 -188.421875 37.566406 -189.003906 37.796875 -189.703125 C 38.035156 -190.398438 38.269531 -191.097656 38.5 -191.796875 C 38.726562 -192.265625 38.898438 -192.847656 39.015625 -193.546875 C 39.140625 -194.242188 39.316406 -194.828125 39.546875 -195.296875 C 40.015625 -197.160156 40.710938 -198.207031 41.640625 -198.4375 C 42.578125 -198.675781 43.628906 -198.796875 44.796875 -198.796875 C 46.898438 -197.867188 47.832031 -196.003906 47.59375 -193.203125 C 47.363281 -192.265625 47.191406 -191.328125 47.078125 -190.390625 C 46.960938 -189.460938 46.785156 -188.53125 46.546875 -187.59375 C 46.316406 -185.96875 45.734375 -184.101562 44.796875 -182 L 33.25 -145.953125 C 21.582031 -112.347656 13.765625 -77.113281 9.796875 -40.25 C 12.367188 -40.945312 13.769531 -42 14 -43.40625 C 14.226562 -43.863281 14.457031 -44.441406 14.6875 -45.140625 C 14.925781 -45.847656 15.164062 -46.4375 15.40625 -46.90625 C 17.03125 -50.40625 18.894531 -54.367188 21 -58.796875 C 23.101562 -63.234375 25.4375 -68.132812 28 -73.5 C 33.363281 -84.226562 39.3125 -95.773438 45.84375 -108.140625 C 52.382812 -120.515625 59.503906 -132.769531 67.203125 -144.90625 C 70.929688 -150.96875 74.71875 -156.738281 78.5625 -162.21875 C 82.414062 -167.707031 86.328125 -173.019531 90.296875 -178.15625 C 98.234375 -187.945312 106.164062 -195.9375 114.09375 -202.125 C 122.03125 -208.3125 129.5 -211.40625 136.5 -211.40625 C 144.4375 -211.40625 149.101562 -207.785156 150.5 -200.546875 C 151.4375 -197.046875 151.320312 -192.847656 150.15625 -187.953125 C 146.882812 -174.421875 141.515625 -161.878906 134.046875 -150.328125 C 126.578125 -138.773438 117.945312 -128.097656 108.15625 -118.296875 L 99.046875 -109.546875 C 98.578125 -108.847656 97.992188 -108.265625 97.296875 -107.796875 C 96.367188 -107.097656 96.132812 -106.164062 96.59375 -105 C 97.0625 -104.300781 97.765625 -103.953125 98.703125 -103.953125 L 100.796875 -103.953125 C 102.898438 -103.710938 105 -103.710938 107.09375 -103.953125 C 108.257812 -103.953125 109.367188 -103.890625 110.421875 -103.765625 C 111.472656 -103.648438 112.46875 -103.476562 113.40625 -103.25 C 120.164062 -102.550781 125.878906 -99.050781 130.546875 -92.75 C 130.785156 -92.28125 131.078125 -91.8125 131.421875 -91.34375 C 131.773438 -90.882812 132.066406 -90.421875 132.296875 -89.953125 C 132.535156 -89.484375 132.769531 -88.957031 133 -88.375 C 133.226562 -87.789062 133.460938 -87.265625 133.703125 -86.796875 C 134.398438 -86.097656 134.863281 -85.515625 135.09375 -85.046875 C 135.332031 -84.816406 135.453125 -84.523438 135.453125 -84.171875 C 135.453125 -83.828125 135.566406 -83.535156 135.796875 -83.296875 C 136.265625 -80.265625 136.554688 -77.816406 136.671875 -75.953125 C 136.785156 -74.085938 136.726562 -72.570312 136.5 -71.40625 C 136.269531 -70.238281 135.976562 -69.128906 135.625 -68.078125 C 135.269531 -67.023438 134.863281 -65.914062 134.40625 -64.75 C 124.601562 -34.644531 108.617188 -8.160156 86.453125 14.703125 C 82.484375 19.367188 77.40625 23.742188 71.21875 27.828125 C 65.039062 31.910156 58.914062 34.414062 52.84375 35.34375 Z M 51.453125 25.90625 C 53.316406 25.90625 55.003906 25.613281 56.515625 25.03125 C 58.035156 24.445312 59.613281 23.800781 61.25 23.09375 C 70.113281 17.96875 78.335938 11.085938 85.921875 2.453125 C 93.503906 -6.179688 100.269531 -15.570312 106.21875 -25.71875 C 112.175781 -35.875 117.253906 -45.382812 121.453125 -54.25 C 121.679688 -54.945312 121.851562 -55.644531 121.96875 -56.34375 C 122.09375 -57.050781 121.921875 -57.867188 121.453125 -58.796875 C 120.046875 -59.035156 118.992188 -58.800781 118.296875 -58.09375 C 117.128906 -56.925781 116.195312 -56.226562 115.5 -56 C 113.164062 -54.363281 109.609375 -51.5625 104.828125 -47.59375 C 100.046875 -43.632812 95.03125 -39.320312 89.78125 -34.65625 C 84.53125 -29.988281 79.800781 -25.671875 75.59375 -21.703125 C 71.632812 -17.734375 67.257812 -13.238281 62.46875 -8.21875 C 57.6875 -3.207031 53.601562 1.6875 50.21875 6.46875 C 46.84375 11.257812 45.035156 15.285156 44.796875 18.546875 C 44.328125 20.648438 44.789062 22.398438 46.1875 23.796875 C 47.59375 25.203125 49.347656 25.90625 51.453125 25.90625 Z M 51.453125 25.90625 "/></g></g></g><g fill="#ffffff" fill-opacity="1"><g transform="translate(192.391368, 265.874983)"><g><path d="M 48.65625 6.65625 C 40.945312 6.65625 33.707031 5.078125 26.9375 1.921875 C 20.175781 -1.222656 14.695312 -6.179688 10.5 -12.953125 C 6.53125 -19.015625 3.726562 -25.546875 2.09375 -32.546875 C 0.46875 -39.546875 -0.226562 -47.363281 0 -56 C 0 -63.46875 0.988281 -71.804688 2.96875 -81.015625 C 4.957031 -90.234375 7.582031 -99.6875 10.84375 -109.375 C 14.113281 -119.0625 17.734375 -128.21875 21.703125 -136.84375 C 25.671875 -145.476562 29.632812 -152.832031 33.59375 -158.90625 C 38.96875 -167.769531 46.03125 -176.515625 54.78125 -185.140625 C 63.53125 -193.773438 73.09375 -201.125 83.46875 -207.1875 C 93.851562 -213.257812 104.179688 -216.878906 114.453125 -218.046875 C 121.453125 -218.046875 126.875 -216.585938 130.71875 -213.671875 C 134.570312 -210.753906 137.195312 -205.796875 138.59375 -198.796875 C 140 -192.960938 139.882812 -186.894531 138.25 -180.59375 C 135.6875 -169.394531 131.195312 -158.953125 124.78125 -149.265625 C 118.363281 -139.585938 111.65625 -130.316406 104.65625 -121.453125 C 103.019531 -118.648438 101.035156 -117.25 98.703125 -117.25 C 97.535156 -117.25 96.71875 -117.597656 96.25 -118.296875 C 95.550781 -119.929688 96.019531 -121.566406 97.65625 -123.203125 C 103.71875 -131.128906 109.835938 -139.875 116.015625 -149.4375 C 122.203125 -159.007812 126.582031 -168.695312 129.15625 -178.5 C 130.78125 -183.394531 131.242188 -188.296875 130.546875 -193.203125 C 129.847656 -203.703125 125.179688 -208.953125 116.546875 -208.953125 C 115.617188 -208.953125 114.6875 -208.890625 113.75 -208.765625 C 112.8125 -208.648438 111.757812 -208.476562 110.59375 -208.25 C 104.53125 -206.613281 98.113281 -204.164062 91.34375 -200.90625 C 74.550781 -191.800781 60.4375 -179.78125 49 -164.84375 C 37.5625 -149.914062 28.632812 -133.410156 22.21875 -115.328125 C 15.800781 -97.242188 11.425781 -78.75 9.09375 -59.84375 C 8.394531 -53.3125 8.507812 -46.894531 9.4375 -40.59375 C 10.375 -34.300781 12.476562 -28.117188 15.75 -22.046875 C 19.25 -15.285156 23.859375 -10.382812 29.578125 -7.34375 C 35.296875 -4.3125 41.882812 -2.679688 49.34375 -2.453125 C 54.945312 -2.453125 60.898438 -3.617188 67.203125 -5.953125 C 85.171875 -12.015625 100.976562 -20.585938 114.625 -31.671875 C 128.269531 -42.753906 141.160156 -55.53125 153.296875 -70 C 153.765625 -70.46875 154.347656 -71.050781 155.046875 -71.75 C 155.742188 -72.445312 156.328125 -73.144531 156.796875 -73.84375 C 157.265625 -74.3125 157.847656 -74.894531 158.546875 -75.59375 C 159.242188 -76.300781 159.828125 -76.882812 160.296875 -77.34375 C 161.703125 -77.8125 162.519531 -78.046875 162.75 -78.046875 C 163.914062 -78.046875 164.847656 -77.695312 165.546875 -77 C 167.179688 -75.832031 167.414062 -74.082031 166.25 -71.75 C 166.019531 -71.28125 165.550781 -70.695312 164.84375 -70 C 164.613281 -69.769531 164.378906 -69.476562 164.140625 -69.125 C 163.910156 -68.769531 163.679688 -68.363281 163.453125 -67.90625 C 157.617188 -61.132812 151.664062 -54.484375 145.59375 -47.953125 C 139.53125 -41.421875 133.113281 -35.238281 126.34375 -29.40625 C 120.75 -24.269531 113.34375 -18.898438 104.125 -13.296875 C 94.90625 -7.703125 85.394531 -2.976562 75.59375 0.875 C 65.800781 4.726562 56.820312 6.65625 48.65625 6.65625 Z M 48.65625 6.65625 "/></g></g></g></svg>